<svg xmlns="http://www.w3.org/2000/svg" width="8" height="24" viewBox="0 0 8 24">
  <g id="Group_4217" data-name="Group 4217" transform="translate(-1103 -286)">
    <rect id="Rectangle_1550" data-name="Rectangle 1550" width="4" height="4" transform="translate(1103 290)"/>
    <rect id="Rectangle_1564" data-name="Rectangle 1564" width="4" height="4" transform="translate(1111 306) rotate(180)"/>
    <path id="Path_1495" data-name="Path 1495" d="M0,0H4V4H0Z" transform="translate(1103 290)"/>
    <path id="Path_1498" data-name="Path 1498" d="M0,0H4V4H0Z" transform="translate(1111 306) rotate(180)"/>
    <rect id="Rectangle_1554" data-name="Rectangle 1554" width="4" height="4" transform="translate(1103 286)"/>
    <rect id="Rectangle_1566" data-name="Rectangle 1566" width="4" height="4" transform="translate(1111 310) rotate(180)"/>
    <rect id="Rectangle_1559" data-name="Rectangle 1559" width="4" height="4" transform="translate(1103 286)"/>
    <rect id="Rectangle_1567" data-name="Rectangle 1567" width="4" height="4" transform="translate(1111 310) rotate(180)"/>
    <rect id="Rectangle_1551" data-name="Rectangle 1551" width="4" height="4" transform="translate(1103 298)"/>
    <rect id="Rectangle_1568" data-name="Rectangle 1568" width="4" height="4" transform="translate(1111 298) rotate(180)"/>
    <path id="Path_1497" data-name="Path 1497" d="M0,0H4V4H0Z" transform="translate(1103 298)"/>
    <path id="Path_1496" data-name="Path 1496" d="M0,0H4V4H0Z" transform="translate(1111 298) rotate(180)"/>
    <rect id="Rectangle_1556" data-name="Rectangle 1556" width="4" height="4" transform="translate(1103 302)"/>
    <rect id="Rectangle_1572" data-name="Rectangle 1572" width="4" height="4" transform="translate(1111 294) rotate(180)"/>
    <rect id="Rectangle_1562" data-name="Rectangle 1562" width="4" height="4" transform="translate(1103 302)" fill="#fff"/>
    <rect id="Rectangle_1573" data-name="Rectangle 1573" width="4" height="4" transform="translate(1111 294) rotate(180)" fill="#fff"/>
    <rect id="Rectangle_1557" data-name="Rectangle 1557" width="4" height="4" transform="translate(1103 294)"/>
    <rect id="Rectangle_1570" data-name="Rectangle 1570" width="4" height="4" transform="translate(1111 302) rotate(180)"/>
    <rect id="Rectangle_1560" data-name="Rectangle 1560" width="4" height="4" transform="translate(1103 294)" fill="#fff"/>
    <rect id="Rectangle_1571" data-name="Rectangle 1571" width="4" height="4" transform="translate(1111 302) rotate(180)" fill="#fff"/>
    <rect id="Rectangle_1555" data-name="Rectangle 1555" width="4" height="4" transform="translate(1103 306)"/>
    <rect id="Rectangle_1574" data-name="Rectangle 1574" width="4" height="4" transform="translate(1111 290) rotate(180)"/>
    <path id="Path_1499" data-name="Path 1499" d="M0,0H4V4H0Z" transform="translate(1103 306)"/>
    <rect id="Rectangle_1575" data-name="Rectangle 1575" width="4" height="4" transform="translate(1111 290) rotate(180)"/>
  </g>
</svg>
